<?xml version="1.0" encoding="UTF-8" standalone="no"?><!-- Generator: Gravit.io --><svg xmlns="http://www.w3.org/2000/svg" xmlns:xlink="http://www.w3.org/1999/xlink" style="isolation:isolate" viewBox="0 0 50 50" width="50pt" height="50pt"><defs><clipPath id="_clipPath_mGAYvC510M5VPScliOJE1abB364orLVj"><rect width="50" height="50"/></clipPath></defs><g clip-path="url(#_clipPath_mGAYvC510M5VPScliOJE1abB364orLVj)"><clipPath id="_clipPath_O60XSr7fsz40Q18QHKiGUzF0auUXFnzV"><rect x="1" y="1" width="50" height="50" transform="matrix(1,0,0,1,0,0)" fill="rgb(255,255,255)"/></clipPath><g clip-path="url(#_clipPath_O60XSr7fsz40Q18QHKiGUzF0auUXFnzV)"><g><path d=" M 41.484 24.755 L 27.245 10.516 C 26.557 9.828 25.443 9.828 24.755 10.516 L 21.777 13.488 L 24.865 16.576 C 25.209 16.418 25.594 16.315 26 16.315 C 27.458 16.315 28.642 17.498 28.642 18.956 C 28.642 19.362 28.538 19.74 28.373 20.091 L 31.909 23.62 C 32.253 23.462 32.638 23.359 33.044 23.359 C 34.502 23.359 35.685 24.542 35.685 26 C 35.685 27.458 34.502 28.642 33.044 28.642 C 31.586 28.642 30.403 27.458 30.403 26 C 30.403 25.594 30.499 25.216 30.664 24.865 L 27.128 21.336 C 27.053 21.371 26.963 21.405 26.881 21.433 L 26.881 30.568 C 27.899 30.932 28.642 31.895 28.642 33.044 C 28.642 34.502 27.458 35.685 26 35.685 C 24.542 35.685 23.359 34.502 23.359 33.044 C 23.359 31.895 24.095 30.925 25.12 30.568 L 25.12 21.433 C 24.095 21.068 23.359 20.105 23.359 18.956 C 23.359 18.55 23.455 18.172 23.62 17.821 L 20.532 14.74 L 10.516 24.755 C 9.828 25.443 9.828 26.557 10.516 27.245 L 24.755 41.484 C 25.443 42.172 26.557 42.172 27.245 41.484 L 41.484 27.245 C 42.172 26.557 42.172 25.443 41.484 24.755 Z " fill="rgb(255,255,255)"/></g></g></g></svg>