<?xml version="1.0" encoding="UTF-8" standalone="no"?><!-- Generator: Gravit.io --><svg xmlns="http://www.w3.org/2000/svg" xmlns:xlink="http://www.w3.org/1999/xlink" style="isolation:isolate" viewBox="0 0 50 50" width="50pt" height="50pt"><defs><clipPath id="_clipPath_qDKTZJMLpOmOix3eLW3xYGESNGcuBYe5"><rect width="50" height="50"/></clipPath></defs><g clip-path="url(#_clipPath_qDKTZJMLpOmOix3eLW3xYGESNGcuBYe5)"><clipPath id="_clipPath_ER7DSVdo7NXlhRlpqnH7XO4U49nNTXJp"><rect x="0" y="0" width="50" height="50" transform="matrix(1,0,0,1,0,0)" fill="rgb(255,255,255)"/></clipPath><g clip-path="url(#_clipPath_ER7DSVdo7NXlhRlpqnH7XO4U49nNTXJp)"><g><path d=" M 10.137 9 L 10.252 10.344 L 12.692 37.275 L 25 41 L 37.308 37.275 L 39.863 9 L 10.137 9 Z  M 12.826 11.458 L 37.175 11.458 L 35.013 35.412 L 25 38.446 L 14.987 35.412 L 12.826 11.458 Z  M 17.396 16.374 L 18.289 23.747 L 29.214 23.747 L 28.513 29.623 L 25 30.967 L 21.487 29.623 L 21.082 26.205 L 18.586 26.205 L 19.202 31.389 L 25 33.607 L 30.8 31.389 L 31.999 21.289 L 20.506 21.289 L 20.2 18.831 L 32.297 18.831 L 32.595 16.374 L 17.396 16.374 Z " fill="rgb(255,255,255)"/></g></g></g></svg>