<?xml version="1.0" encoding="UTF-8" standalone="no"?><!-- Generator: Gravit.io --><svg xmlns="http://www.w3.org/2000/svg" xmlns:xlink="http://www.w3.org/1999/xlink" style="isolation:isolate" viewBox="0 0 50 50" width="50pt" height="50pt"><defs><clipPath id="_clipPath_gd0Z8uy1vq0FH1A8ZiDcYlPb6g0Uvh32"><rect width="50" height="50"/></clipPath></defs><g clip-path="url(#_clipPath_gd0Z8uy1vq0FH1A8ZiDcYlPb6g0Uvh32)"><clipPath id="_clipPath_RN6hDkiqANWXBFpBgUOenLrsurJr9ZUO"><rect x="0" y="0" width="50" height="50" transform="matrix(1,0,0,1,0,0)" fill="rgb(255,255,255)"/></clipPath><g clip-path="url(#_clipPath_RN6hDkiqANWXBFpBgUOenLrsurJr9ZUO)"><g><path d=" M 32.273 9 C 30.668 9 29.364 10.305 29.364 11.909 L 29.364 19.182 L 22.091 19.182 C 20.493 19.182 19.182 20.493 19.182 22.091 L 19.182 29.364 L 11.909 29.364 C 10.311 29.364 9 30.675 9 32.273 L 9 38.091 C 9 39.689 10.311 41 11.909 41 L 29.364 41 L 30.091 41 L 38.091 41 C 39.695 41 41 39.695 41 38.091 L 41 11.909 C 41 10.305 39.695 9 38.091 9 L 32.273 9 Z  M 22.091 20.636 L 29.364 20.636 L 29.364 39.545 L 11.909 39.545 C 11.097 39.545 10.455 38.903 10.455 38.091 L 10.455 32.273 C 10.455 31.461 11.097 30.818 11.909 30.818 L 19.909 30.818 C 20.311 30.818 20.636 30.493 20.636 30.091 L 20.636 22.091 C 20.636 21.279 21.279 20.636 22.091 20.636 Z " fill="rgb(255,255,255)"/></g></g></g></svg>