<?xml version="1.0" encoding="UTF-8" standalone="no"?><!-- Generator: Gravit.io --><svg xmlns="http://www.w3.org/2000/svg" xmlns:xlink="http://www.w3.org/1999/xlink" style="isolation:isolate" viewBox="0 0 50 50" width="50pt" height="50pt"><defs><clipPath id="_clipPath_JkxnQkl2bO5sYFfZlUd3CN64LG03KEte"><rect width="50" height="50"/></clipPath></defs><g clip-path="url(#_clipPath_JkxnQkl2bO5sYFfZlUd3CN64LG03KEte)"><clipPath id="_clipPath_Gcxj9ulZGg94scU3Rq8AItKvk5em1LBO"><rect x="9" y="9" width="32" height="32" transform="matrix(1,0,0,1,0,0)" fill="rgb(255,255,255)"/></clipPath><g clip-path="url(#_clipPath_Gcxj9ulZGg94scU3Rq8AItKvk5em1LBO)"><g><path d=" M 25 9 C 15.942 9 8.596 16.345 8.596 25.404 C 8.596 32.653 13.295 38.801 19.815 40.971 C 20.634 41.123 20.899 40.614 20.899 40.182 L 20.899 37.128 C 16.336 38.121 15.386 35.192 15.386 35.192 C 14.639 33.296 13.563 32.792 13.563 32.792 C 12.075 31.774 13.677 31.795 13.677 31.795 C 15.324 31.91 16.191 33.486 16.191 33.486 C 17.654 35.994 20.028 35.269 20.964 34.849 C 21.111 33.79 21.536 33.065 22.006 32.657 C 18.363 32.24 14.533 30.833 14.533 24.549 C 14.533 22.757 15.174 21.294 16.222 20.145 C 16.053 19.731 15.491 18.062 16.382 15.804 C 16.382 15.804 17.76 15.364 20.895 17.485 C 22.203 17.122 23.606 16.94 25 16.933 C 26.394 16.94 27.798 17.122 29.109 17.485 C 32.241 15.364 33.616 15.804 33.616 15.804 C 34.509 18.063 33.947 19.733 33.778 20.145 C 34.83 21.294 35.466 22.758 35.466 24.549 C 35.466 30.849 31.629 32.237 27.976 32.643 C 28.564 33.152 29.101 34.149 29.101 35.681 L 29.101 40.182 C 29.101 40.618 29.364 41.131 30.196 40.97 C 36.71 38.797 41.404 32.65 41.404 25.404 C 41.404 16.345 34.059 9 25 9 Z " fill="rgb(255,255,255)"/></g></g></g></svg>