<?xml version="1.0" encoding="UTF-8" standalone="no"?><!-- Generator: Gravit.io --><svg xmlns="http://www.w3.org/2000/svg" xmlns:xlink="http://www.w3.org/1999/xlink" style="isolation:isolate" viewBox="0 0 24 24" width="24pt" height="24pt"><defs><clipPath id="_clipPath_p05OfZKagpdJkKPBU48YOm6uaFeqH16W"><rect width="24" height="24"/></clipPath></defs><g clip-path="url(#_clipPath_p05OfZKagpdJkKPBU48YOm6uaFeqH16W)"><path d=" M 4.98 3.5 C 4.98 4.881 3.87 6 2.5 6 C 1.13 6 0.02 4.881 0.02 3.5 C 0.02 2.12 1.13 1 2.5 1 C 3.87 1 4.98 2.12 4.98 3.5 Z  M 5 8 L 0 8 L 0 24 L 5 24 L 5 8 Z  M 12.982 8 L 8.014 8 L 8.014 24 L 12.983 24 L 12.983 15.601 C 12.983 10.931 19.012 10.549 19.012 15.601 L 19.012 24 L 24 24 L 24 13.869 C 24 5.989 15.078 6.276 12.982 10.155 L 12.982 8 Z " fill="rgb(255,255,255)"/></g></svg>