<?xml version="1.0" encoding="UTF-8" standalone="no"?><!-- Generator: Gravit.io --><svg xmlns="http://www.w3.org/2000/svg" xmlns:xlink="http://www.w3.org/1999/xlink" style="isolation:isolate" viewBox="0 0 50 50" width="50pt" height="50pt"><defs><clipPath id="_clipPath_yXNlXClcNbBYYnqSU3GilUt491MXCmzo"><rect width="50" height="50"/></clipPath></defs><g clip-path="url(#_clipPath_yXNlXClcNbBYYnqSU3GilUt491MXCmzo)"><clipPath id="_clipPath_S38XXiNHD2xYOMNUs7RKU6nYw8XRUBOP"><rect x="0" y="0" width="50" height="50" transform="matrix(1,0,0,1,0,0)" fill="rgb(255,255,255)"/></clipPath><g clip-path="url(#_clipPath_S38XXiNHD2xYOMNUs7RKU6nYw8XRUBOP)"><g><path d=" M 24.993 9 C 24.544 9 24.095 9.11 23.707 9.332 L 11.51 16.373 C 10.722 16.828 10.231 17.69 10.231 18.601 L 10.231 31.375 C 10.231 32.298 10.722 33.148 11.51 33.603 L 14.712 35.45 C 16.263 36.213 16.816 36.212 17.517 36.212 C 19.819 36.212 21.135 34.821 21.135 32.409 L 21.135 19.228 C 21.135 19.031 20.976 18.87 20.779 18.87 L 19.241 18.87 C 19.031 18.87 18.882 19.031 18.882 19.228 L 18.882 32.397 C 18.882 33.48 17.764 34.538 15.955 33.639 L 12.606 31.707 C 12.483 31.645 12.409 31.51 12.409 31.375 L 12.409 18.613 C 12.409 18.465 12.483 18.341 12.606 18.267 L 24.803 11.228 C 24.914 11.155 25.062 11.155 25.185 11.228 L 37.382 18.267 C 37.506 18.341 37.58 18.466 37.58 18.601 L 37.58 31.375 C 37.58 31.51 37.505 31.645 37.394 31.707 L 25.185 38.76 C 25.075 38.821 24.914 38.821 24.803 38.76 L 21.664 36.901 C 21.578 36.84 21.457 36.828 21.37 36.877 C 20.497 37.37 20.337 37.431 19.524 37.714 C 19.327 37.775 19.019 37.898 19.635 38.243 L 23.707 40.656 C 24.101 40.878 24.545 41 24.988 41 C 25.444 41 25.885 40.878 26.279 40.656 L 38.491 33.603 C 39.278 33.148 39.769 32.298 39.769 31.375 L 39.769 18.613 C 39.769 17.69 39.278 16.84 38.491 16.385 L 26.279 9.332 C 25.891 9.11 25.442 9 24.993 9 Z  M 28.274 18.853 C 24.791 18.853 22.712 20.329 22.712 22.791 C 22.712 25.462 24.778 26.199 28.125 26.531 C 32.125 26.925 32.433 27.518 32.433 28.305 C 32.433 29.659 31.339 30.238 28.767 30.238 C 25.53 30.238 24.816 29.425 24.582 27.825 C 24.557 27.652 24.411 27.529 24.238 27.529 L 22.649 27.529 C 22.452 27.529 22.306 27.69 22.306 27.875 C 22.306 29.93 23.426 32.377 28.767 32.377 C 32.632 32.377 34.846 30.853 34.846 28.195 C 34.846 25.561 33.061 24.858 29.32 24.353 C 25.517 23.861 25.135 23.602 25.135 22.716 C 25.135 21.978 25.468 21.007 28.274 21.007 C 30.773 21.007 31.708 21.547 32.089 23.233 C 32.126 23.393 32.261 23.517 32.433 23.517 L 34.022 23.517 C 34.12 23.517 34.205 23.468 34.279 23.394 C 34.341 23.333 34.378 23.233 34.366 23.123 C 34.119 20.218 32.188 18.853 28.274 18.853 Z " fill="rgb(255,255,255)"/></g></g></g></svg>