<?xml version="1.0" encoding="UTF-8" standalone="no"?><!-- Generator: Gravit.io --><svg xmlns="http://www.w3.org/2000/svg" xmlns:xlink="http://www.w3.org/1999/xlink" style="isolation:isolate" viewBox="0 0 24 24" width="24pt" height="24pt"><defs><clipPath id="_clipPath_LcVgMOXVKNRfRXSW3NpNTMcoGzJeLPHG"><rect width="24" height="24"/></clipPath></defs><g clip-path="url(#_clipPath_LcVgMOXVKNRfRXSW3NpNTMcoGzJeLPHG)"><path d=" M 0.057 24 L 1.744 17.837 C 0.703 16.033 0.156 13.988 0.157 11.891 C 0.16 5.335 5.495 0 12.05 0 C 15.231 0.001 18.217 1.24 20.463 3.488 C 22.708 5.736 23.944 8.724 23.943 11.902 C 23.94 18.459 18.605 23.794 12.05 23.794 C 10.06 23.793 8.099 23.294 6.362 22.346 L 0.057 24 Z  M 6.654 20.193 C 8.33 21.188 9.93 21.784 12.046 21.785 C 17.494 21.785 21.932 17.351 21.935 11.9 C 21.937 6.438 17.52 2.01 12.054 2.008 C 6.602 2.008 2.167 6.442 2.165 11.892 C 2.164 14.117 2.816 15.783 3.911 17.526 L 2.912 21.174 L 6.654 20.193 Z  M 18.041 14.729 C 17.967 14.605 17.769 14.531 17.471 14.382 C 17.174 14.233 15.713 13.514 15.44 13.415 C 15.168 13.316 14.97 13.266 14.771 13.564 C 14.573 13.861 14.003 14.531 13.83 14.729 C 13.657 14.927 13.483 14.952 13.186 14.803 C 12.889 14.654 11.931 14.341 10.796 13.328 C 9.913 12.54 9.316 11.567 9.143 11.269 C 8.97 10.972 9.125 10.811 9.273 10.663 C 9.407 10.53 9.57 10.316 9.719 10.142 C 9.87 9.97 9.919 9.846 10.019 9.647 C 10.118 9.449 10.069 9.275 9.994 9.126 C 9.919 8.978 9.325 7.515 9.078 6.92 C 8.836 6.341 8.591 6.419 8.409 6.41 L 7.839 6.4 C 7.641 6.4 7.319 6.474 7.047 6.772 C 6.775 7.07 6.007 7.788 6.007 9.251 C 6.007 10.714 7.072 12.127 7.22 12.325 C 7.369 12.523 9.315 15.525 12.296 16.812 C 13.005 17.118 13.559 17.301 13.99 17.438 C 14.702 17.664 15.35 17.632 15.862 17.556 C 16.433 17.471 17.62 16.837 17.868 16.143 C 18.116 15.448 18.116 14.853 18.041 14.729 Z " fill="rgb(255,255,255)"/></g></svg>