<?xml version="1.0" encoding="UTF-8" standalone="no"?><!-- Generator: Gravit.io --><svg xmlns="http://www.w3.org/2000/svg" xmlns:xlink="http://www.w3.org/1999/xlink" style="isolation:isolate" viewBox="0 0 50 50" width="50pt" height="50pt"><defs><clipPath id="_clipPath_Cso1QHOP1M8vFhE7ai9Jqknbmh4WMANY"><rect width="50" height="50"/></clipPath></defs><g clip-path="url(#_clipPath_Cso1QHOP1M8vFhE7ai9Jqknbmh4WMANY)"><clipPath id="_clipPath_51jGofDqkqA3IvgUfbV8BcIrvseWPL4a"><rect x="0" y="0" width="50" height="50" transform="matrix(1,0,0,1,0,0)" fill="rgb(255,255,255)"/></clipPath><g clip-path="url(#_clipPath_51jGofDqkqA3IvgUfbV8BcIrvseWPL4a)"><g><path d=" M 36.789 37.632 L 25 41 L 13.21 37.632 L 10.684 9 L 39.316 9 C 38.473 18.543 37.631 28.089 36.789 37.632 Z  M 37.477 10.684 L 12.523 10.684 L 14.786 36.329 L 25 39.25 L 35.214 36.329 L 37.477 10.684 Z  M 18.095 27.526 L 21.464 27.526 L 21.546 29.632 L 25 30.809 L 28.454 29.632 L 28.704 25.842 L 21.296 25.842 L 21.125 22.474 L 28.875 22.474 L 29.125 19.105 L 17.506 19.105 L 17.253 15.737 L 32.664 15.737 L 32.243 22.474 L 31.651 32.158 L 25 34.349 L 18.348 32.158 L 18.095 27.526 Z " fill-rule="evenodd" fill="rgb(255,255,255)"/></g></g></g></svg>