<?xml version="1.0" encoding="UTF-8" standalone="no"?><!-- Generator: Gravit.io --><svg xmlns="http://www.w3.org/2000/svg" xmlns:xlink="http://www.w3.org/1999/xlink" style="isolation:isolate" viewBox="0 0 50 50" width="50pt" height="50pt"><defs><clipPath id="_clipPath_4etqKwXF3SmzNWAegN3Rc9XUrA03KcTc"><rect width="50" height="50"/></clipPath></defs><g clip-path="url(#_clipPath_4etqKwXF3SmzNWAegN3Rc9XUrA03KcTc)"><clipPath id="_clipPath_RC1dPTPrhGW21I5gLF5he5F3gK1gJVW0"><rect x="0" y="0" width="50" height="50" transform="matrix(1,0,0,1,0,0)" fill="rgb(255,255,255)"/></clipPath><g clip-path="url(#_clipPath_RC1dPTPrhGW21I5gLF5he5F3gK1gJVW0)"><g><path d=" M 9 9 L 9 41 L 41 41 L 41 9 L 9 9 Z  M 11.909 11.909 L 38.091 11.909 L 38.091 38.091 L 11.909 38.091 L 11.909 11.909 Z  M 31.173 23.545 C 29.101 23.545 27.761 24.872 27.761 26.628 C 27.761 28.535 28.88 29.446 30.565 30.165 L 31.148 30.415 C 32.212 30.885 32.847 31.159 32.847 31.96 C 32.847 32.637 32.226 33.122 31.259 33.122 C 30.112 33.122 29.461 32.515 28.963 31.699 L 27.057 32.79 C 27.733 34.144 29.142 35.182 31.313 35.182 C 33.523 35.182 35.182 34.035 35.182 31.935 C 35.182 29.972 34.062 29.101 32.071 28.259 L 31.491 28.009 C 30.483 27.566 30.054 27.276 30.054 26.585 C 30.054 26.018 30.482 25.577 31.173 25.577 C 31.851 25.577 32.278 25.867 32.679 26.585 L 34.506 25.412 C 33.732 24.058 32.666 23.545 31.173 23.545 Z  M 22.665 23.685 L 22.665 31.631 C 22.665 32.791 22.167 33.094 21.406 33.094 C 20.605 33.094 20.26 32.542 19.901 31.892 L 17.994 33.04 C 18.547 34.215 19.637 35.182 21.503 35.182 C 23.576 35.182 25 34.075 25 31.656 L 25 23.685 L 22.665 23.685 Z " fill="rgb(255,255,255)"/></g></g></g></svg>