<?xml version="1.0" encoding="UTF-8" standalone="no"?><!-- Generator: Gravit.io --><svg xmlns="http://www.w3.org/2000/svg" xmlns:xlink="http://www.w3.org/1999/xlink" style="isolation:isolate" viewBox="0 0 50 50" width="50pt" height="50pt"><defs><clipPath id="_clipPath_FiMCBjsmuBYy4mi2rV4j6GUlcCxKc6zQ"><rect width="50" height="50"/></clipPath></defs><g clip-path="url(#_clipPath_FiMCBjsmuBYy4mi2rV4j6GUlcCxKc6zQ)"><clipPath id="_clipPath_ffHMsSyNTSWkZjiSJE5zgtKdJRQvCKvU"><rect x="0" y="0" width="50" height="50" transform="matrix(1,0,0,1,0,0)" fill="rgb(255,255,255)"/></clipPath><g clip-path="url(#_clipPath_ffHMsSyNTSWkZjiSJE5zgtKdJRQvCKvU)"><g><path d=" M 32.277 9.003 C 31.683 8.983 31.062 9.086 30.438 9.288 C 29.193 9.692 27.886 10.48 26.545 11.57 C 26.02 11.997 25.49 12.486 24.958 13.004 C 24.438 12.499 23.92 12.024 23.406 11.606 C 22.066 10.516 20.763 9.729 19.52 9.325 C 18.277 8.922 17.039 8.91 16.024 9.496 C 15.006 10.083 14.399 11.16 14.126 12.439 C 13.854 13.717 13.883 15.24 14.157 16.944 C 14.253 17.537 14.388 18.158 14.543 18.791 C 13.963 18.966 13.399 19.152 12.875 19.356 C 11.297 19.972 9.992 20.71 9.041 21.587 C 8.09 22.465 7.476 23.53 7.476 24.699 C 7.476 25.868 8.09 26.932 9.041 27.809 C 9.992 28.687 11.297 29.426 12.875 30.042 C 13.434 30.261 14.039 30.457 14.664 30.643 C 14.44 31.483 14.258 32.298 14.133 33.071 C 13.859 34.777 13.831 36.299 14.105 37.581 C 14.378 38.862 14.986 39.945 16.006 40.535 C 17.027 41.125 18.27 41.11 19.517 40.706 C 20.763 40.302 22.069 39.516 23.409 38.426 C 23.93 38.002 24.455 37.519 24.982 37.007 C 25.513 37.523 26.041 38.008 26.563 38.433 C 27.902 39.523 29.207 40.309 30.451 40.712 C 31.694 41.115 32.931 41.128 33.947 40.541 C 34.964 39.954 35.57 38.877 35.843 37.599 C 36.115 36.32 36.086 34.799 35.812 33.095 C 35.687 32.32 35.504 31.502 35.278 30.659 C 35.924 30.469 36.549 30.267 37.125 30.042 C 38.703 29.426 40.008 28.687 40.959 27.809 C 41.91 26.932 42.525 25.868 42.525 24.699 C 42.525 23.53 41.91 22.465 40.959 21.587 C 40.008 20.71 38.703 19.972 37.125 19.356 C 36.594 19.149 36.023 18.961 35.433 18.783 C 35.587 18.146 35.726 17.521 35.822 16.925 C 36.096 15.219 36.124 13.695 35.851 12.413 C 35.579 11.132 34.968 10.05 33.947 9.461 C 33.437 9.166 32.871 9.023 32.277 9.003 Z  M 32.208 10.553 C 32.579 10.563 32.898 10.651 33.17 10.808 C 33.714 11.122 34.115 11.734 34.329 12.739 C 34.545 13.745 34.537 15.104 34.284 16.68 C 34.197 17.219 34.072 17.791 33.929 18.377 C 32.371 18.002 30.663 17.724 28.843 17.56 C 27.93 16.295 26.992 15.142 26.045 14.12 C 26.547 13.631 27.044 13.174 27.53 12.779 C 28.767 11.772 29.94 11.087 30.917 10.77 C 31.406 10.611 31.835 10.542 32.208 10.553 Z  M 17.755 10.557 C 18.13 10.547 18.558 10.615 19.048 10.774 C 20.029 11.092 21.204 11.777 22.444 12.785 C 22.919 13.172 23.405 13.62 23.895 14.097 C 22.941 15.128 21.996 16.291 21.076 17.568 C 19.265 17.734 17.565 18.014 16.015 18.39 C 15.873 17.808 15.746 17.239 15.661 16.702 C 15.406 15.125 15.4 13.766 15.616 12.757 C 15.831 11.748 16.236 11.133 16.784 10.816 C 17.06 10.657 17.38 10.568 17.755 10.557 Z  M 24.982 15.216 C 25.603 15.891 26.224 16.63 26.839 17.425 C 26.235 17.4 25.621 17.385 25 17.385 C 24.367 17.385 23.742 17.4 23.125 17.426 C 23.742 16.631 24.361 15.892 24.982 15.216 Z  M 25 18.923 C 26.035 18.923 27.045 18.965 28.027 19.037 C 28.702 20.008 29.364 21.037 29.992 22.127 C 30.545 23.084 31.045 24.04 31.5 24.985 C 31.041 25.941 30.531 26.91 29.972 27.881 C 29.479 28.735 28.964 29.547 28.44 30.329 C 27.33 30.422 26.18 30.473 25 30.473 C 23.791 30.473 22.615 30.419 21.482 30.322 C 20.968 29.551 20.461 28.751 19.975 27.91 C 19.416 26.942 18.911 25.975 18.451 25.02 C 18.911 24.06 19.421 23.088 19.982 22.114 C 20.609 21.03 21.267 20.006 21.938 19.04 C 22.931 18.967 23.952 18.923 25 18.923 Z  M 29.988 19.228 C 31.243 19.384 32.423 19.602 33.52 19.863 C 33.194 20.93 32.792 22.045 32.306 23.195 C 31.992 22.587 31.665 21.977 31.312 21.365 C 30.884 20.624 30.438 19.918 29.988 19.228 Z  M 19.93 19.24 C 19.489 19.917 19.055 20.61 18.637 21.336 C 18.279 21.955 17.946 22.573 17.626 23.189 C 17.145 22.046 16.746 20.937 16.423 19.876 C 17.513 19.615 18.685 19.398 19.93 19.24 Z  M 35.027 20.268 C 35.566 20.431 36.087 20.601 36.565 20.788 C 38.02 21.356 39.172 22.029 39.917 22.718 C 40.662 23.406 40.986 24.062 40.986 24.699 C 40.986 25.336 40.662 25.992 39.917 26.68 C 39.172 27.369 38.02 28.041 36.565 28.61 C 36.034 28.817 35.451 29.005 34.843 29.184 C 34.41 27.844 33.857 26.447 33.2 25.02 C 33.955 23.382 34.566 21.785 35.027 20.268 Z  M 14.949 20.275 C 15.404 21.778 16.006 23.359 16.751 24.98 C 16.09 26.415 15.534 27.82 15.1 29.167 C 14.513 28.994 13.949 28.811 13.434 28.61 C 11.979 28.041 10.829 27.369 10.084 26.68 C 9.337 25.992 9.014 25.336 9.014 24.699 C 9.014 24.062 9.337 23.406 10.084 22.718 C 10.829 22.029 11.979 21.356 13.434 20.788 C 13.906 20.604 14.418 20.436 14.949 20.275 Z  M 25 21.2 C 22.906 21.2 21.192 22.914 21.192 25.008 C 21.192 27.102 22.906 28.816 25 28.816 C 27.094 28.816 28.808 27.102 28.808 25.008 C 28.808 22.914 27.094 21.2 25 21.2 Z  M 17.645 26.81 C 17.965 27.429 18.298 28.05 18.657 28.672 C 18.939 29.159 19.225 29.633 19.517 30.099 C 18.494 29.957 17.522 29.777 16.609 29.565 C 16.899 28.675 17.246 27.752 17.645 26.81 Z  M 32.326 26.81 C 32.725 27.755 33.073 28.679 33.364 29.571 C 32.448 29.783 31.474 29.962 30.447 30.103 C 30.742 29.632 31.034 29.152 31.319 28.659 C 31.676 28.041 32.007 27.424 32.326 26.81 Z  M 16.171 31.043 C 17.548 31.37 19.043 31.621 20.626 31.784 C 21.684 33.314 22.787 34.688 23.895 35.89 C 23.399 36.373 22.908 36.827 22.426 37.218 C 21.189 38.225 20.015 38.909 19.036 39.226 C 18.058 39.543 17.329 39.501 16.784 39.187 C 16.241 38.873 15.84 38.262 15.626 37.257 C 15.411 36.251 15.418 34.894 15.671 33.318 C 15.786 32.603 15.956 31.837 16.171 31.043 Z  M 33.805 31.049 C 34.02 31.848 34.193 32.616 34.308 33.335 C 34.562 34.913 34.568 36.272 34.353 37.28 C 34.138 38.289 33.735 38.906 33.187 39.223 C 32.638 39.54 31.901 39.581 30.92 39.263 C 29.938 38.945 28.763 38.26 27.524 37.252 C 27.041 36.858 26.545 36.401 26.045 35.913 C 27.163 34.707 28.271 33.326 29.336 31.787 C 30.924 31.625 32.423 31.375 33.805 31.049 Z  M 22.614 31.94 C 23.396 31.983 24.188 32.012 25 32.012 C 25.785 32.012 26.551 31.985 27.308 31.945 C 26.534 32.989 25.746 33.938 24.961 34.793 C 24.174 33.937 23.388 32.985 22.614 31.94 Z " fill-rule="evenodd" fill="rgb(255,255,255)"/></g></g></g></svg>