<?xml version="1.0" encoding="UTF-8" standalone="no"?><!-- Generator: Gravit.io --><svg xmlns="http://www.w3.org/2000/svg" xmlns:xlink="http://www.w3.org/1999/xlink" style="isolation:isolate" viewBox="0 0 50 50" width="50pt" height="50pt"><defs><clipPath id="_clipPath_XI6j6w9rkEbZTnkFWNnnQ98vCMMbtHUU"><rect width="50" height="50"/></clipPath></defs><g clip-path="url(#_clipPath_XI6j6w9rkEbZTnkFWNnnQ98vCMMbtHUU)"><clipPath id="_clipPath_9CFBDBLfoDCA11FkKmuOtsF4qi1WB7nf"><rect x="0" y="0" width="50" height="50" transform="matrix(1,0,0,1,0,0)" fill="rgb(255,255,255)"/></clipPath><g clip-path="url(#_clipPath_9CFBDBLfoDCA11FkKmuOtsF4qi1WB7nf)"><g><path d=" M 25.001 9 L 15.138 10.408 L 7.703 20.82 L 25.001 41 L 42.297 20.82 L 34.863 10.408 L 25.001 9 Z  M 21.704 12.104 L 17.445 16.972 L 17.74 12.672 L 21.704 12.104 Z  M 28.299 12.104 L 32.263 12.669 L 32.558 16.972 L 28.299 12.104 Z  M 25.001 12.298 L 31.255 19.442 L 18.748 19.442 L 25.001 12.298 Z  M 14.957 15.149 L 14.659 19.442 L 11.891 19.442 L 14.957 15.149 Z  M 35.046 15.152 L 38.112 19.442 L 35.344 19.442 L 35.046 15.152 Z  M 12.194 22.049 L 15.071 22.049 L 19.1 30.108 L 12.194 22.049 Z  M 17.987 22.049 L 32.016 22.049 L 25.001 36.081 L 17.987 22.049 Z  M 34.931 22.049 L 37.809 22.049 L 30.903 30.108 L 34.931 22.049 Z " fill="rgb(255,255,255)"/></g></g></g></svg>